<?xml version="1.0" encoding="UTF-8"?>
<!DOCTYPE svg PUBLIC "-//W3C//DTD SVG 1.1//EN" "http://www.w3.org/Graphics/SVG/1.1/DTD/svg11.dtd">
<!-- Creator: CorelDRAW 2020 (64-Bit) -->
<svg xmlns="http://www.w3.org/2000/svg" xml:space="preserve" width="336.327mm" height="257.341mm" version="1.1" style="shape-rendering:geometricPrecision; text-rendering:geometricPrecision; image-rendering:optimizeQuality; fill-rule:evenodd; clip-rule:evenodd"
viewBox="0 0 33631.66 25733.25"
 xmlns:xlink="http://www.w3.org/1999/xlink"
 xmlns:xodm="http://www.corel.com/coreldraw/odm/2003">
 <defs>
  <style type="text/css">
   <![CDATA[
    .fil0 {fill:none}
    .fil4 {fill:#093C9D}
    .fil3 {fill:#0D59E7}
    .fil5 {fill:#18C15E}
    .fil2 {fill:#0C57E4;fill-rule:nonzero}
    .fil1 {fill:white;fill-rule:nonzero}
   ]]>
  </style>
 </defs>
 <g id="Capa_x0020_1">
  <metadata id="CorelCorpID_0Corel-Layer"/>
  <polygon class="fil0" points="-0,0 33631.66,0 33631.66,25733.25 -0,25733.25 "/>
  <g id="_2372296694496">
   <g>
    <path class="fil1" d="M9809.62 15716.39l-363.01 344.71c-246.85,-260.11 -524.01,-390.16 -832.73,-390.16 -260.11,0 -479.81,89.02 -657.85,266.42 -178.66,177.4 -267.68,395.85 -267.68,655.95 0,181.19 39.77,342.19 118.69,482.34 78.92,140.79 190.66,251.27 334.61,331.45 144.58,80.18 304.93,119.95 481.7,119.95 150.26,0 287.89,-27.78 412.27,-83.97 125,-56.19 262,-158.47 411,-306.19l351.65 367.44c-200.76,196.34 -390.8,332.71 -569.46,408.47 -178.66,76.39 -383.22,114.28 -612.39,114.28 -423,0 -769.6,-133.85 -1039.18,-402.17 -269.58,-267.68 -404.06,-611.76 -404.06,-1030.33 0,-271.48 61.24,-512.01 184.35,-722.88 122.48,-210.87 297.99,-380.07 527.16,-508.22 228.54,-128.17 474.77,-192.56 739.29,-192.56 224.12,0 440.05,47.36 648.38,142.06 207.71,94.7 387.01,229.17 537.26,403.42zm1343.48 181.82c190.03,0 368.7,47.35 536,142.06 167.93,94.7 297.99,222.85 392.06,385.11 94.07,162.88 140.79,337.77 140.79,525.9 0,189.4 -47.35,366.18 -141.42,530.95 -94.7,164.77 -223.49,293.57 -386.38,386.38 -163.51,92.81 -342.81,139.53 -539.15,139.53 -289.15,0 -536,-102.28 -739.93,-306.83 -204.55,-205.18 -306.83,-453.94 -306.83,-746.24 0,-313.77 115.54,-575.14 346.61,-784.12 202.65,-181.82 434.99,-272.74 698.25,-272.74zm7.58 473.51c-157.21,0 -287.89,54.29 -392.06,162.88 -104.17,109.22 -156.58,248.11 -156.58,417.94 0,174.25 51.77,315.67 154.68,423.63 102.92,107.96 233.6,162.25 392.06,162.25 157.84,0 289.15,-54.93 394.59,-164.14 104.81,-109.23 157.21,-250.01 157.21,-421.74 0,-172.35 -51.77,-311.88 -154.68,-419.84 -102.91,-107.33 -234.86,-160.98 -395.22,-160.98zm1467.22 -424.26l503.8 0 0 234.85c86.49,-95.33 182.45,-166.67 288.51,-213.39 105.44,-47.35 220.97,-70.71 345.98,-70.71 125.64,0 239.9,30.94 340.92,92.81 101.64,61.87 183.08,152.79 244.95,271.47 80.18,-118.69 178.66,-209.6 295.47,-271.47 116.8,-61.87 244.95,-92.81 383.22,-92.81 143.31,0 269.57,33.46 378.17,99.76 109.22,66.29 186.87,153.42 234.85,260.1 47.35,107.33 71.34,281.58 71.34,522.74l0 1178.07 -503.8 0 0 -1016.45c0,-227.28 -28.41,-381.33 -85.86,-461.51 -57.45,-80.18 -143.95,-120.59 -258.21,-120.59 -87.76,0 -166.04,24.63 -234.86,73.87 -69.45,48.62 -121.22,116.8 -154.68,203.29 -33.46,86.49 -50.51,225.38 -50.51,417.31l0 904.07 -503.8 0 0 -970.36c0,-179.29 -13.26,-309.35 -40.4,-389.54 -26.52,-80.81 -66.93,-140.16 -119.96,-179.92 -53.67,-39.14 -118.7,-58.72 -194.45,-58.72 -84.6,0 -161.61,24.63 -230.43,74.5 -69.45,49.88 -120.59,119.33 -155.31,208.97 -34.1,89.65 -51.14,231.07 -51.14,423.63l0 891.44 -503.8 0 0 -2011.43zm5053.19 0l503.8 0 0 2011.43 -503.8 0 0 -214.02c-98.5,93.44 -197.61,160.35 -296.73,201.39 -99.12,41.04 -207.07,61.88 -322.61,61.88 -260.74,0 -485.49,-100.39 -675.53,-301.78 -190.03,-200.76 -284.73,-450.78 -284.73,-749.4 0,-309.98 92.18,-563.78 275.89,-762.02 183.71,-197.6 406.58,-296.73 669.22,-296.73 121.21,0 234.22,22.73 340.28,67.56 106.07,44.82 203.92,113.01 294.21,202.65l0 -220.96zm-530.95 412.89c-156.58,0 -286.63,54.93 -389.54,165.41 -103.54,109.85 -155.31,251.27 -155.31,423.63 0,173.61 52.4,316.29 157.84,428.67 105.43,111.75 234.85,167.93 388.9,167.93 158.47,0 290.41,-54.92 394.59,-165.4 104.8,-109.86 157.2,-254.43 157.2,-433.1 0,-174.87 -52.4,-316.3 -157.2,-424.89 -104.18,-107.96 -236.75,-162.25 -396.48,-162.25zm1425.55 -412.89l435.63 0 0 255.69c46.72,-99.76 108.59,-175.51 185.6,-227.28 77.66,-51.77 162.25,-77.66 253.8,-77.66 65.03,0 133.21,17.05 204.55,51.77l-156.58 435.63c-58.71,-29.68 -107.33,-44.2 -145.21,-44.2 -77.03,0 -142.69,47.99 -195.71,143.95 -53.66,95.97 -80.18,284.1 -80.18,564.41l1.89 97.86 0 811.26 -503.8 0 0 -2011.43z"/>
    <path class="fil2" d="M20066.12 17985.56l501.56 0 0 -725.4 381.07 0c511.33,0 921.71,-286.71 921.71,-849.75l0 -6.91c0,-497.41 -328.95,-835.93 -872.86,-835.93l-931.48 0 0 2417.99zm501.56 -1198.63l0 -739.22 387.58 0c250.79,0 407.12,127.81 407.12,366.15l0 6.91c0,207.25 -146.56,366.16 -397.35,366.16l-397.35 0zm2689.73 1240.08c703.5,0 1214.84,-563.04 1214.84,-1250.45l0 -6.91c0,-687.4 -504.82,-1243.54 -1208.32,-1243.54 -703.51,0 -1214.84,563.05 -1214.84,1250.45l0 6.91c0,687.41 504.82,1243.54 1208.32,1243.54zm6.52 -490.5c-403.86,0 -690.48,-345.43 -690.48,-759.95l0 -6.91c0,-414.51 280.1,-753.03 683.96,-753.03 403.87,0 690.47,345.43 690.47,759.94l0 6.91c0,414.52 -280.09,753.04 -683.95,753.04zm2357.52 483.59c491.79,0 837.03,-269.43 837.03,-749.58l0 -6.91c0,-421.42 -260.55,-594.13 -723.04,-725.4 -394.1,-110.54 -491.8,-155.45 -491.8,-317.79l0 -6.91c0,-120.91 97.71,-210.71 293.13,-210.71 195.41,0 387.57,89.81 592.76,238.34l260.55 -400.7c-234.5,-196.89 -511.33,-307.43 -846.8,-307.43 -469.01,0 -797.95,290.16 -797.95,728.86l0 6.91c0,476.68 293.13,618.31 755.62,739.22 381.06,100.17 459.23,172.71 459.23,307.43l0 6.91c0,141.63 -120.5,227.98 -328.95,227.98 -260.56,0 -472.26,-114 -680.7,-293.62l-296.38 376.52c273.58,262.53 618.81,386.88 967.31,386.88z"/>
   </g>
   <g>
    <path class="fil3" d="M14651.84 10242.73c-20.51,-588.2 162.56,-1190.41 563,-1643.05 707.14,-799.29 1921.93,-838.77 2781.62,-261.48 196.94,132.27 371.73,273.7 525.45,436.2l1277.12 -1277.12c-1456.66,-1691.92 -4189.69,-1875.19 -5811.69,-254.99 -1187.1,1185.31 -1413.04,2976.36 -854.65,4519.59l1519.14 -1519.14z"/>
    <path class="fil4" d="M13273.93 12104.95c791.91,1680.67 2784.8,2398.37 4501.16,1948.5l0 -1984.47c-628.04,315.47 -1374.53,377.32 -2024.93,45.15 -563.83,-287.99 -917.68,-833.26 -1045.73,-1439.68l-1430.5 1430.5z"/>
    <path class="fil5" d="M18188.58 11290.46l1117.1 0c67.31,0 122.33,55.02 122.33,122.32l0 1116.9 -122.53 122.53 -1116.9 0c-67.31,0 -122.33,-55.01 -122.33,-122.32l0 -1117.11c0,-67.3 55.02,-122.32 122.33,-122.32z"/>
    <path class="fil5" d="M19550.32 12652.21l1117.11 0c67.3,0 122.32,55.02 122.32,122.33l0 1117.1c0,67.31 -55.02,122.33 -122.32,122.33l-1117.11 0c-67.3,0 -122.32,-55.02 -122.32,-122.33l0 -1117.1c0,-6.49 0.48,-12.91 1.52,-19.12l101.68 -101.69c6.21,-1.03 12.63,-1.52 19.12,-1.52z"/>
   </g>
   <path class="fil1" d="M8393.07 19602.23c116.54,0 198.19,-61.05 198.19,-165.69l0 -1.58c0,-92.76 -61.04,-132.4 -177.58,-162.52 -107.02,-25.37 -132.39,-44.4 -132.39,-87.21l0 -1.59c0,-37.26 33.29,-65.8 90.38,-65.8 50.74,0 99.89,19.82 150.63,57.08l52.32 -73.73c-57.08,-45.19 -119.71,-69.77 -201.36,-69.77 -110.2,0 -189.47,65.81 -189.47,160.94l0 1.58c0,101.48 66.6,137.95 184.71,165.69 103.07,22.99 125.27,45.98 125.27,84.83l0 1.58c0,41.23 -38.06,69.77 -98.31,69.77 -68.97,0 -121.3,-25.37 -175.2,-72.14l-58.67 69.76c66.6,60.26 145.88,88.8 231.49,88.8zm411.56 -7.93l97.52 0 0 -554.95 -97.52 0 0 554.95zm532.85 7.93c116.54,0 198.19,-61.05 198.19,-165.69l0 -1.58c0,-92.76 -61.04,-132.4 -177.58,-162.52 -107.02,-25.37 -132.39,-44.4 -132.39,-87.21l0 -1.59c0,-37.26 33.29,-65.8 90.38,-65.8 50.74,0 99.89,19.82 150.63,57.08l52.32 -73.73c-57.08,-45.19 -119.71,-69.77 -201.36,-69.77 -110.2,0 -189.47,65.81 -189.47,160.94l0 1.58c0,101.48 66.6,137.95 184.71,165.69 103.07,22.99 125.27,45.98 125.27,84.83l0 1.58c0,41.23 -38.06,69.77 -98.31,69.77 -68.97,0 -121.3,-25.37 -175.2,-72.14l-58.67 69.76c66.6,60.26 145.88,88.8 231.49,88.8zm530.47 -7.93l97.52 0 0 -464.58 176.79 0 0 -90.38 -451.1 0 0 90.38 176.78 0 0 464.58zm468.64 0l415.43 0 0 -87.21 -317.91 0 0 -148.25 278.26 0 0 -88.01 -278.26 0 0 -144.29 313.94 0 0 -87.21 -411.46 0 0 554.95zm624.02 0l95.93 0 0 -396.4 173.62 260.04 3.17 0 175.2 -261.62 0 397.98 97.52 0 0 -554.95 -103.86 0 -168.86 262.41 -168.86 -262.41 -103.86 0 0 554.95zm733.43 0l99.9 0 57.08 -133.98 262.41 0 56.29 133.98 103.07 0 -244.18 -558.91 -90.38 0 -244.18 558.91zm192.65 -220.39l95.13 -221.98 95.93 221.98 -191.05 0zm1374.79 167.27l-63.43 -53.91c35.68,-48.36 56.29,-107.03 56.29,-170.44l0 -1.59c0,-156.18 -118.92,-285.4 -289.36,-285.4 -170.45,0 -290.95,131.61 -290.95,286.99l0 1.58c0,156.19 118.92,285.4 289.36,285.4 64.22,0 121.3,-18.23 168.86,-52.32l66.6 59.46 62.63 -69.77zm-296.5 -27.75c-111,0 -188.68,-88.79 -188.68,-196.6l0 -1.59c0,-107.82 76.9,-195.02 187.09,-195.02 110.99,0 188.68,88.79 188.68,196.61l0 1.58c0,38.85 -8.72,74.53 -26.96,105.45l-97.51 -88.8 -62.63 71.35 95.13 82.46c-27.74,16.65 -59.46,24.57 -95.13,24.57zm727.88 89.59c145.08,0 238.63,-83.24 238.63,-248.93l0 -314.74 -97.52 0 0 319.5c0,102.27 -53.12,153.8 -139.54,153.8 -88,0 -140.32,-53.91 -140.32,-157.77l0 -315.53 -97.52 0 0 319.5c0,160.93 92.76,244.17 236.25,244.17zm465.47 -8.72l415.43 0 0 -87.21 -317.91 0 0 -148.25 278.26 0 0 -88.01 -278.26 0 0 -144.29 313.94 0 0 -87.21 -411.46 0 0 554.95zm867.4 0l97.52 0 0 -554.95 -97.52 0 0 554.95zm338.62 0l95.93 0 0 -396.4 173.62 260.04 3.17 0 175.2 -261.62 0 397.98 97.52 0 0 -554.95 -103.86 0 -168.86 262.41 -168.86 -262.41 -103.86 0 0 554.95zm781 0l97.52 0 0 -178.37 110.2 0c122.88,0 221.98,-65.81 221.98,-189.47l0 -1.59c0,-111.79 -80.87,-185.51 -210.88,-185.51l-218.81 0 0 554.95zm97.52 -266.37l0 -199.78 113.37 0c72.94,0 119.71,33.3 119.71,99.1l0 1.58c0,57.88 -45.98,99.11 -119.71,99.11l-113.37 0zm752.46 275.09c145.08,0 238.63,-83.24 238.63,-248.93l0 -314.74 -97.52 0 0 319.5c0,102.27 -53.12,153.8 -139.54,153.8 -88,0 -140.32,-53.91 -140.32,-157.77l0 -315.53 -97.52 0 0 319.5c0,160.93 92.76,244.17 236.25,244.17zm465.47 -8.72l389.26 0 0 -88.79 -291.74 0 0 -466.17 -97.52 0 0 554.95zm777.04 7.93c116.54,0 198.19,-61.05 198.19,-165.69l0 -1.58c0,-92.76 -61.04,-132.4 -177.58,-162.52 -107.02,-25.37 -132.39,-44.4 -132.39,-87.21l0 -1.59c0,-37.26 33.29,-65.8 90.38,-65.8 50.74,0 99.89,19.82 150.63,57.08l52.32 -73.73c-57.08,-45.19 -119.71,-69.77 -201.36,-69.77 -110.2,0 -189.47,65.81 -189.47,160.94l0 1.58c0,101.48 66.6,137.95 184.71,165.69 103.07,22.99 125.27,45.98 125.27,84.83l0 1.58c0,41.23 -38.06,69.77 -98.31,69.77 -68.97,0 -121.3,-25.37 -175.2,-72.14l-58.67 69.76c66.6,60.26 145.88,88.8 231.49,88.8zm346.55 -7.93l99.9 0 57.08 -133.98 262.41 0 56.29 133.98 103.07 0 -244.18 -558.91 -90.38 0 -244.18 558.91zm192.65 -220.39l95.13 -221.98 95.93 221.98 -191.05 0zm947.47 220.39l97.52 0 0 -464.58 176.79 0 0 -90.38 -451.1 0 0 90.38 176.78 0 0 464.58zm696.17 8.72c145.08,0 238.63,-83.24 238.63,-248.93l0 -314.74 -97.52 0 0 319.5c0,102.27 -53.12,153.8 -139.54,153.8 -88,0 -140.32,-53.91 -140.32,-157.77l0 -315.53 -97.52 0 0 319.5c0,160.93 92.76,244.17 236.25,244.17zm703.3 -8.72l95.93 0 0 -394.81 306.02 394.81 81.66 0 0 -554.95 -95.93 0 0 383.71 -297.3 -383.71 -90.38 0 0 554.95zm719.16 0l415.43 0 0 -87.21 -317.91 0 0 -148.25 278.26 0 0 -88.01 -278.26 0 0 -144.29 313.94 0 0 -87.21 -411.46 0 0 554.95zm887.23 9.51c98.3,0 175.99,-39.64 231.49,-86.41l0 -233.08 -236.25 0 0 85.62 141.91 0 0 103.07c-34.09,25.37 -80.86,42.02 -133.98,42.02 -113.37,0 -188.68,-84.04 -188.68,-198.19l0 -1.59c0,-106.24 78.49,-195.02 179.96,-195.02 69.76,0 112.58,22.2 155.39,58.67l61.84 -73.73c-57.09,-48.37 -117.34,-75.32 -213.26,-75.32 -168.07,0 -286.19,131.61 -286.19,286.99l0 1.58c0,161.73 114.16,285.4 287.78,285.4zm715.98 0c170.45,0 290.95,-131.6 290.95,-286.98l0 -1.59c0,-156.18 -118.92,-285.4 -289.36,-285.4 -170.45,0 -290.95,131.61 -290.95,286.99l0 1.58c0,156.19 118.92,285.4 289.36,285.4zm1.59 -90.38c-111,0 -188.68,-88.79 -188.68,-196.6l0 -1.59c0,-107.82 76.9,-195.02 187.09,-195.02 110.99,0 188.68,88.79 188.68,196.61l0 1.58c0,107.82 -76.9,195.02 -187.09,195.02zm758.01 90.38c103.06,0 168.85,-37.26 225.14,-98.3l-62.63 -63.43c-47.57,44.4 -91.96,71.35 -159.34,71.35 -106.24,0 -183.13,-88 -183.13,-196.6l0 -1.59c0,-108.61 77.69,-195.02 182.33,-195.02 64.22,0 111,26.96 156.19,68.18l62.63 -72.14c-53.12,-50.74 -114.96,-86.42 -218.01,-86.42 -167.28,0 -285.4,129.23 -285.4,286.99l0 1.58c0,159.35 120.5,285.4 282.23,285.4zm426.62 -9.51l97.52 0 0 -554.95 -97.52 0 0 554.95zm603.41 9.51c170.45,0 290.95,-131.6 290.95,-286.98l0 -1.59c0,-156.18 -118.92,-285.4 -289.36,-285.4 -170.45,0 -290.95,131.61 -290.95,286.99l0 1.58c0,156.19 118.92,285.4 289.36,285.4zm1.59 -90.38c-111,0 -188.68,-88.79 -188.68,-196.6l0 -1.59c0,-107.82 76.9,-195.02 187.09,-195.02 110.99,0 188.68,88.79 188.68,196.61l0 1.58c0,107.82 -76.9,195.02 -187.09,195.02z"/>
  </g>
 </g>
</svg>
